<svg width="390" height="387" viewBox="0 0 390 387" fill="none" xmlns="http://www.w3.org/2000/svg">
<path fill-rule="evenodd" clip-rule="evenodd" d="M390 0.999975C390 26 390 51 390 76C372.492 75.67 355.159 76.003 338 77C299.381 78.324 260.714 78.324 222 77C220.667 89.816 220.001 102.983 220 116.5C220 129.838 220.333 143.004 221 156C271.497 156.999 322.164 157.332 373 157C373 182 373 207 373 232C322 232 271 232 220 232C220 283.667 220 335.333 220 387C186 387 152 387 118 387C118.333 283.499 117.999 180.165 117 77C78.17 76.001 39.1702 75.668 0 76C0 51 0 26 0 0.999975C130 -0.333325 260 -0.333325 390 0.999975Z" fill="#A138C9"/>
</svg>
